{"title":"American Horror Story S05E09 1080p WEB-DL DD5 1 H264-NTb[rartv]","uid":12972146,"size":1850589811,"categoryP":"video","categoryS":"hd___tv_shows","magnet":"?xt=urn:btih:2d6395fcafa07fba78d9ea06ecde8fef657bf5ca&amp;dn=American+Horror+Story+S05E09+1080p+WEB-DL+DD5+1+H264-NTb%5Brartv%5D&amp;tr=udp%3A%2F%2Ftracker.leechers-paradise.org%3A6969&amp;tr=udp%3A%2F%2Fzer0day.ch%3A1337&amp;tr=udp%3A%2F%2Fopen.demonii.com%3A1337&amp;tr=udp%3A%2F%2Ftracker.coppersurfer.tk%3A6969&amp;tr=udp%3A%2F%2Fexodus.desync.com%3A6969","seeders":2,"leechers":0,"uploader":"cheerfulcaca","files":3,"time":1449956786,"description":"SEASON 5, EPISODE 9 &quot;SHE WANTS REVENGE&quot; SYNOPSIS:\r\n\r\nThe Countess is reunited with her one true love; Donovan and Ramona take another stab at revenge; a careless decision lands Alex in hot water. \r\n\r\n\r\nSERIES INFO:\r\n\r\n8.3/10·IMDb\r\n8.6/10·TV.com\r\n\r\n&quot;American Horror Story&quot; was created by the co-creators of &quot;Glee,&quot; but the shows have little in common besides that. The show revolves around the Harmons, a family of three, who move from Boston to Los Angeles in order to reconcile past anguish. What the Harmons don't know is that the house they've moved into is haunted. But it's not haunted by Casperesque friendly ghosts -- it's haunted by demonic creatures. The creatures have a history of not only spooking the house's residents but also devouring them. After living in this house, family patriarch and psychiatrist, Ben, may need a shrink of his own.\r\n\r\n\r\nMEDIA INFO:\r\n\r\nVideo:\r\n\r\nID : 2\r\nFormat : AVC\r\nFormat/Info : Advanced Video Codec\r\nFormat profile :   \r\nFormat settings, CABAC : Yes\r\nFormat settings, ReFrames : 4 frames\r\nCodec ID : V_MPEG4/ISO/AVC\r\nDuration : 45mn 38s\r\nBit rate : 4 915 Kbps\r\nWidth : 1 920 pixels\r\nHeight : 1 080 pixels\r\nDisplay aspect ratio : 16:9\r\nFrame rate mode : Constant\r\nFrame rate : 23.976 fps\r\nColor space : YUV\r\nChroma subsampling : 4:2:0\r\nBit depth : 8 bits\r\nScan type : Progressive\r\nBits/(Pixel*Frame) : 0.099\r\nStream size : 1.57 GiB (91%)\r\nDefault : Yes\r\nForced : No\r\nColor range : Limited\r\nColor primaries : BT.709\r\nTransfer characteristics : BT.709\r\nMatrix coefficients : BT.709\r\n\r\nAudio:\r\n\r\nID : 3\r\nFormat : AC-3\r\nFormat/Info : Audio Coding 3\r\nMode extension : CM (complete main)\r\nFormat settings, Endianness : Big\r\nCodec ID : A_AC3\r\nDuration : 45mn 38s\r\nBit rate mode : Constant\r\nBit rate : 384 Kbps\r\nChannel(s) : 6 channels\r\nChannel positions : Front: L C R, Side: L R, LFE\r\nSampling rate : 48.0 KHz\r\nCompression mode : Lossy\r\nDelay relative to video : -34ms\r\nStream size : 125 MiB (7%)\r\nLanguage : unknown\r\nDefault : Yes\r\nForced : No\r\n\r\nText:\r\n\r\nID : 1\r\nFormat : UTF-8\r\nCodec ID : S_TEXT/UTF8\r\nCodec ID/Info : UTF-8 Plain Text\r\nLanguage : English\r\nDefault : Yes\r\nForced : No\r\n\r\n \nhttps://rarbg.to","torrent":{"xt":"urn:btih:2d6395fcafa07fba78d9ea06ecde8fef657bf5ca","amp;dn":"American+Horror+Story+S05E09+1080p+WEB-DL+DD5+1+H264-NTb%5Brartv%5D","amp;tr":["udp%3A%2F%2Ftracker.leechers-paradise.org%3A6969","udp%3A%2F%2Fzer0day.ch%3A1337","udp%3A%2F%2Fopen.demonii.com%3A1337","udp%3A%2F%2Ftracker.coppersurfer.tk%3A6969","udp%3A%2F%2Fexodus.desync.com%3A6969"],"infoHash":"2d6395fcafa07fba78d9ea06ecde8fef657bf5ca","infoHashBuffer":{"type":"Buffer","data":[45,99,149,252,175,160,127,186,120,217,234,6,236,222,143,239,101,123,245,202]},"announce":[],"urlList":[]}}